<svg width="40" height="40" viewBox="0 0 40 40" fill="none" xmlns="http://www.w3.org/2000/svg">
<path d="M28.2616 40H11.7394C5.26652 40 0 34.7338 0 28.2608V11.7397C0 5.26655 5.26652 0 11.7394 0H28.2616C34.7338 0 40 5.26655 40 11.7397V28.2608C40 34.7338 34.7338 40 28.2616 40ZM11.7394 0.918C5.7728 0.918 0.918164 5.77249 0.918164 11.7397V28.2608C0.918164 34.2275 5.7728 39.082 11.7394 39.082H28.2616C34.2279 39.082 39.0818 34.2275 39.0818 28.2608V11.7397C39.0818 5.77249 34.2279 0.918 28.2616 0.918H11.7394ZM28.4524 36.4976H11.5493C7.16555 36.4976 3.59962 32.9326 3.59962 28.5507V11.6442C3.59962 7.26213 7.16555 3.69702 11.5493 3.69702H28.4524C32.8355 3.69702 36.4007 7.26213 36.4007 11.6442V28.5507C36.4007 32.9326 32.8355 36.4976 28.4524 36.4976ZM11.5493 4.61485C7.67182 4.61485 4.51778 7.76841 4.51778 11.6442V28.5507C4.51778 32.4265 7.67182 35.5798 11.5493 35.5798H28.4524C32.3292 35.5798 35.4836 32.4265 35.4836 28.5507V11.6442C35.4836 7.76841 32.3292 4.61485 28.4524 4.61485H11.5493Z" fill="#C7C6C6"/>
<path d="M20.0006 30.6971C14.1558 30.6971 9.40088 25.942 9.40088 20.0972C9.40088 14.2538 14.1558 9.49988 20.0006 9.49988C25.8454 9.49988 30.6003 14.2538 30.6003 20.0972C30.6003 25.942 25.8454 30.6971 20.0006 30.6971ZM20.0006 10.4177C14.6621 10.4177 10.3184 14.7597 10.3184 20.0972C10.3184 25.4359 14.6621 29.7791 20.0006 29.7791C25.3395 29.7791 29.6832 25.4359 29.6832 20.0972C29.6832 14.7597 25.3395 10.4177 20.0006 10.4177ZM20.0006 27.1302C16.1232 27.1302 12.9695 23.9751 12.9695 20.0972C12.9695 16.2199 16.1232 13.0655 20.0006 13.0655C23.8787 13.0655 27.0338 16.2199 27.0338 20.0972C27.0338 23.9751 23.8787 27.1302 20.0006 27.1302ZM20.0006 13.9835C16.6295 13.9835 13.8873 16.726 13.8873 20.0972C13.8873 23.469 16.6295 26.2122 20.0006 26.2122C23.3724 26.2122 26.1159 23.469 26.1159 20.0972C26.1159 16.726 23.3724 13.9835 20.0006 13.9835Z" fill="#C7C6C6"/>
<path d="M30.4806 12.3921C28.9234 12.3921 27.6567 11.1266 27.6567 9.57103C27.6567 8.01585 28.9234 6.75049 30.4806 6.75049C32.0348 6.75049 33.2988 8.01585 33.2988 9.57103C33.2988 11.1266 32.0348 12.3921 30.4806 12.3921ZM30.4806 7.6685C29.4294 7.6685 28.5749 8.52196 28.5749 9.57103C28.5749 10.6204 29.4294 11.4742 30.4806 11.4742C31.5285 11.4742 32.381 10.6204 32.381 9.57103C32.381 8.52196 31.5285 7.6685 30.4806 7.6685Z" fill="#C7C6C6"/>
</svg>
