<svg width="40" height="40" viewBox="0 0 40 40" fill="none" xmlns="http://www.w3.org/2000/svg">
<path d="M28.2616 40H11.7394C5.26652 40 0 34.7338 0 28.2608V11.7397C0 5.26655 5.26652 0 11.7394 0H28.2616C34.7338 0 40 5.26655 40 11.7397V28.2608C40 34.7338 34.7338 40 28.2616 40ZM11.7394 0.918C5.7728 0.918 0.918164 5.77248 0.918164 11.7397V28.2608C0.918164 34.2275 5.7728 39.082 11.7394 39.082H28.2616C34.2279 39.082 39.0818 34.2275 39.0818 28.2608V11.7397C39.0818 5.77248 34.2279 0.918 28.2616 0.918H11.7394ZM28.4524 36.4976H11.5493C7.16555 36.4976 3.59962 32.9326 3.59962 28.5507V11.6442C3.59962 7.26213 7.16555 3.69702 11.5493 3.69702H28.4524C32.8355 3.69702 36.4007 7.26213 36.4007 11.6442V28.5507C36.4007 32.9326 32.8355 36.4976 28.4524 36.4976ZM11.5493 4.61485C7.67182 4.61485 4.51778 7.76841 4.51778 11.6442V28.5507C4.51778 32.4265 7.67182 35.5798 11.5493 35.5798H28.4524C32.3292 35.5798 35.4836 32.4265 35.4836 28.5507V11.6442C35.4836 7.76841 32.3292 4.61485 28.4524 4.61485H11.5493Z" fill="#666464"/>
<path d="M11.7479 14.5803C12.4681 16.4136 13.4654 18.1914 14.6842 19.7469C14.8504 19.9691 15.072 20.1358 15.2936 20.3025C15.626 20.5247 15.903 20.4691 16.0693 20.0802C16.1801 19.6914 16.3463 18.9136 16.3463 18.5247C16.3463 17.4691 16.3463 16.7469 16.2909 15.6914C16.2355 15.0247 16.0139 14.4136 15.0166 14.2469C14.6842 14.1914 14.6842 13.9136 14.9058 13.6914C15.2936 13.1914 15.903 13.0802 16.5125 13.0247C17.5097 12.9691 18.5069 13.0247 19.5596 13.0247C19.9474 13.0247 20.3906 13.0802 20.7784 13.1358C21.3324 13.2469 21.6094 13.6358 21.6648 14.1358C21.7202 14.4136 21.7202 14.6914 21.7202 14.9691C21.7202 16.1358 21.6648 17.3025 21.6094 18.4136C21.6094 18.858 21.6094 19.358 21.7202 19.7469C21.831 20.358 22.2742 20.5247 22.7175 20.0802C23.2715 19.5247 23.7147 18.858 24.2133 18.2469C25.0443 17.0803 25.6537 15.8025 26.1524 14.4691C26.4294 13.8025 26.651 13.6358 27.3712 13.6358C28.7562 13.6358 30.1413 13.6358 31.5263 13.6358C31.7479 13.6358 32.0249 13.6358 32.2465 13.7469C32.6344 13.858 32.7452 14.1914 32.6898 14.5803C32.4681 15.4691 31.9695 16.2469 31.4709 17.0247C30.6399 18.2469 29.7535 19.4136 28.867 20.5802C28.7562 20.7469 28.6454 20.9136 28.59 21.0802C28.2576 21.6914 28.313 21.9691 28.7562 22.4691C29.5319 23.2469 30.3075 23.9691 31.0277 24.7469C31.5817 25.3025 32.0249 25.9691 32.4681 26.6358C33.0222 27.4691 32.6898 28.2469 31.6925 28.4136C31.0831 28.5247 28.036 28.4136 27.8698 28.4136C27.0388 28.4136 26.3186 28.1358 25.7645 27.5802C25.0997 26.9691 24.5457 26.3025 23.9363 25.6358C23.7701 25.4136 23.5485 25.2469 23.3269 25.0802C22.8283 24.6914 22.3296 24.8025 22.108 25.358C21.8864 25.858 21.7202 27.1914 21.7202 27.3025C21.6648 27.9136 21.277 28.3025 20.6122 28.3025C18.6731 28.4136 16.7895 28.1914 15.072 27.2469C13.5762 26.4691 12.4127 25.358 11.4155 24.0247C9.80886 21.9691 8.47922 19.6358 7.31579 17.3025C7.26039 17.1914 6.04155 14.6358 6.04155 14.5247C5.93075 14.1358 6.04155 13.7469 6.37396 13.6358C6.59557 13.5802 10.4737 13.6358 10.5845 13.6358C11.0831 13.6358 11.5263 13.9136 11.7479 14.5803Z" fill="#666464"/>
</svg>
