<svg width="90" height="33" viewBox="0 0 90 33" fill="none" xmlns="http://www.w3.org/2000/svg">
<rect width="90" height="33" rx="2" fill="#666464"/>
<rect x="1" y="1" width="88" height="31" rx="3" fill="white"/>
<path d="M16.2344 26.2812C15.0078 26.2812 13.8867 26.082 12.8711 25.6836C11.8555 25.2773 10.9805 24.7031 10.2461 23.9609C9.51953 23.2188 8.95312 22.3242 8.54688 21.2773C8.14062 20.2227 7.9375 19.0469 7.9375 17.75C7.9375 16.4141 8.14453 15.2031 8.55859 14.1172C8.98047 13.0234 9.57812 12.0898 10.3516 11.3164C11.125 10.5352 12.0547 9.93359 13.1406 9.51172C14.2266 9.08203 15.4375 8.86719 16.7734 8.86719C17.7656 8.86719 18.6992 9.00781 19.5742 9.28906C20.457 9.57031 21.2422 9.96094 21.9297 10.4609L21.3438 11.5391C20.7812 11.1016 20.1367 10.7617 19.4102 10.5195C18.6914 10.2695 17.8789 10.1445 16.9727 10.1445C16.1211 10.1445 15.3555 10.3281 14.6758 10.6953C14.0039 11.0625 13.4336 11.5742 12.9648 12.2305C12.4961 12.8789 12.1367 13.6523 11.8867 14.5508C11.6445 15.4414 11.5234 16.4141 11.5234 17.4688C11.5234 18.5391 11.6523 19.5234 11.9102 20.4219C12.168 21.3203 12.5391 22.0977 13.0234 22.7539C13.5156 23.4023 14.1172 23.9102 14.8281 24.2773C15.5469 24.6445 16.3633 24.8281 17.2773 24.8281C17.7617 24.8281 18.2266 24.7734 18.6719 24.6641C19.125 24.5469 19.5508 24.3945 19.9492 24.207C20.3477 24.0117 20.7148 23.7891 21.0508 23.5391C21.3867 23.2812 21.6836 23.0156 21.9414 22.7422L22.5742 23.5859C21.8398 24.4766 20.9375 25.1484 19.8672 25.6016C18.8047 26.0547 17.5938 26.2812 16.2344 26.2812ZM33.0156 17.2227C33.8047 17.3008 34.5039 17.4609 35.1133 17.7031C35.7227 17.9375 36.2344 18.2383 36.6484 18.6055C37.0625 18.9727 37.3789 19.3984 37.5977 19.8828C37.8164 20.3594 37.9258 20.875 37.9258 21.4297C37.9258 23.0078 37.3203 24.1641 36.1094 24.8984C34.8984 25.6328 33.1328 26 30.8125 26H25.0234V9.13672H31.2109C32.1719 9.13672 33.0234 9.23047 33.7656 9.41797C34.5078 9.60547 35.1289 9.87891 35.6289 10.2383C36.1367 10.5977 36.5195 11.0352 36.7773 11.5508C37.043 12.0664 37.1758 12.6484 37.1758 13.2969C37.1758 13.8047 37.0703 14.2773 36.8594 14.7148C36.6562 15.1445 36.3711 15.5312 36.0039 15.875C35.6367 16.2109 35.1992 16.4961 34.6914 16.7305C34.1836 16.957 33.625 17.1211 33.0156 17.2227ZM28.3516 16.707H30.5195C31.0352 16.707 31.4922 16.6289 31.8906 16.4727C32.2969 16.3086 32.6367 16.0898 32.9102 15.8164C33.1914 15.5352 33.4023 15.207 33.543 14.832C33.6914 14.4492 33.7656 14.0391 33.7656 13.6016C33.7656 13.1406 33.6914 12.7148 33.543 12.3242C33.3945 11.9336 33.168 11.5977 32.8633 11.3164C32.5664 11.0273 32.1875 10.8047 31.7266 10.6484C31.2734 10.4844 30.7422 10.4023 30.1328 10.4023H28.3516V16.707ZM30.7656 24.7344C31.3828 24.7344 31.918 24.6484 32.3711 24.4766C32.8242 24.3047 33.1992 24.0625 33.4961 23.75C33.793 23.4375 34.0117 23.0703 34.1523 22.6484C34.3008 22.2188 34.375 21.7539 34.375 21.2539C34.375 20.1836 34.0547 19.3672 33.4141 18.8047C32.7734 18.2344 31.8242 17.9492 30.5664 17.9492H28.3516V24.7344H30.7656ZM52.2695 9.13672V26H48.9062V10.3789H47.1836C46.5352 10.3789 45.9688 10.4727 45.4844 10.6602C45.0078 10.8398 44.6133 11.0938 44.3008 11.4219C43.9883 11.75 43.7539 12.1406 43.5977 12.5938C43.4492 13.0391 43.375 13.5273 43.375 14.0586C43.375 14.582 43.4492 15.0664 43.5977 15.5117C43.7539 15.957 43.9844 16.3438 44.2891 16.6719C44.5938 16.9922 44.9766 17.2461 45.4375 17.4336C45.9062 17.6133 46.4492 17.7031 47.0664 17.7031H48.25L48.1797 18.7109H46.9258L42.9062 26H38.9336L43.8906 18.5586L44.0664 18.5234C43.3867 18.3828 42.7852 18.1719 42.2617 17.8906C41.7383 17.6094 41.2969 17.2734 40.9375 16.8828C40.5781 16.4922 40.3047 16.0547 40.1172 15.5703C39.9297 15.0781 39.8359 14.5586 39.8359 14.0117C39.8359 13.3008 39.9805 12.6484 40.2695 12.0547C40.5586 11.4609 40.9805 10.9492 41.5352 10.5195C42.0977 10.082 42.7891 9.74219 43.6094 9.5C44.4375 9.25781 45.3906 9.13672 46.4688 9.13672H52.2695ZM62.043 16.9531C62.7461 17.0547 63.3906 17.2227 63.9766 17.457C64.5625 17.6914 65.0625 17.9922 65.4766 18.3594C65.8906 18.7188 66.2109 19.1523 66.4375 19.6602C66.6719 20.1602 66.7891 20.7383 66.7891 21.3945C66.7891 22.1758 66.6172 22.8711 66.2734 23.4805C65.9375 24.082 65.4648 24.5898 64.8555 25.0039C64.2539 25.418 63.5312 25.7344 62.6875 25.9531C61.8516 26.1719 60.9336 26.2812 59.9336 26.2812C59.4727 26.2812 59.0078 26.2422 58.5391 26.1641C58.0703 26.0859 57.6211 25.9766 57.1914 25.8359C56.7695 25.6953 56.375 25.5312 56.0078 25.3438C55.6406 25.1484 55.3242 24.9414 55.0586 24.7227L55.5156 23.6797C55.7969 23.9062 56.1133 24.1094 56.4648 24.2891C56.8242 24.4688 57.1992 24.6211 57.5898 24.7461C57.9883 24.8711 58.3867 24.9688 58.7852 25.0391C59.1914 25.1016 59.582 25.1328 59.957 25.1328C60.543 25.1328 61.0586 25.043 61.5039 24.8633C61.9492 24.6836 62.3203 24.4375 62.6172 24.125C62.9219 23.8047 63.1484 23.4336 63.2969 23.0117C63.4453 22.582 63.5195 22.1211 63.5195 21.6289C63.5195 21.043 63.4102 20.5117 63.1914 20.0352C62.9727 19.5508 62.6523 19.1367 62.2305 18.793C61.8164 18.4492 61.3008 18.1836 60.6836 17.9961C60.0742 17.8086 59.375 17.7188 58.5859 17.7266V16.6484C59.3516 16.625 60 16.5234 60.5312 16.3438C61.0703 16.1562 61.5078 15.9062 61.8438 15.5938C62.1875 15.2812 62.4336 14.9141 62.582 14.4922C62.7383 14.0703 62.8164 13.6055 62.8164 13.0977C62.8164 12.668 62.7578 12.2695 62.6406 11.9023C62.5312 11.5273 62.3672 11.2031 62.1484 10.9297C61.9375 10.6484 61.6758 10.4297 61.3633 10.2734C61.0508 10.1094 60.6953 10.0273 60.2969 10.0273C59.5156 10.0273 58.7422 10.1562 57.9766 10.4141C57.2188 10.6719 56.5547 11.0234 55.9844 11.4688L55.5859 10.4141C56.2656 9.92969 57.0234 9.55469 57.8594 9.28906C58.6953 9.01562 59.6016 8.87891 60.5781 8.87891C61.4297 8.87891 62.1992 8.97656 62.8867 9.17188C63.5742 9.35938 64.1562 9.62891 64.6328 9.98047C65.1172 10.332 65.4883 10.7578 65.7461 11.2578C66.0039 11.7578 66.1328 12.3203 66.1328 12.9453C66.1328 13.4375 66.0352 13.9023 65.8398 14.3398C65.6523 14.7773 65.3828 15.1719 65.0312 15.5234C64.6797 15.875 64.25 16.1758 63.7422 16.4258C63.2422 16.668 62.6758 16.8438 62.043 16.9531ZM69.8828 9.13672H73.2461V16.0977H75.3672C76.4844 16.0977 77.4922 16.1992 78.3906 16.4023C79.2969 16.5977 80.0703 16.9023 80.7109 17.3164C81.3516 17.7227 81.8438 18.2422 82.1875 18.875C82.5312 19.5078 82.7031 20.2539 82.7031 21.1133C82.7031 21.9336 82.5352 22.6484 82.1992 23.2578C81.8633 23.8672 81.3789 24.375 80.7461 24.7812C80.1133 25.1875 79.3398 25.4922 78.4258 25.6953C77.5117 25.8984 76.4766 26 75.3203 26H69.8828V9.13672ZM75.1328 24.7344C75.8359 24.7344 76.4414 24.6484 76.9492 24.4766C77.457 24.3047 77.8789 24.0586 78.2148 23.7383C78.5508 23.418 78.7969 23.0312 78.9531 22.5781C79.1172 22.125 79.1992 21.6172 79.1992 21.0547C79.1992 19.8672 78.8633 18.957 78.1914 18.3242C77.5273 17.6836 76.5391 17.3633 75.2266 17.3633H73.2461V24.7344H75.1328Z" fill="#6846AC"/>
</svg>
