<svg width="353" height="362" viewBox="0 0 353 362" fill="none" xmlns="http://www.w3.org/2000/svg">
<path d="M181.326 125.576C166.813 143.194 140.265 150.749 110.885 143.194C81.505 135.639 62.0344 118.079 64.158 116.58C66.2816 115.081 86.8144 102.71 114.425 102.71C159.734 102.71 172.477 118.079 181.326 125.576Z" fill="#666464"/>
<path d="M178.688 125.063C164.852 139.975 139.541 146.37 111.531 139.975C83.5207 133.58 64.9579 118.717 66.9825 117.448C69.0071 116.18 88.5825 105.709 114.906 105.708C158.102 105.709 170.251 118.717 178.688 125.063Z" fill="white"/>
<path d="M180.937 125.547C160.813 115.934 146.301 91.2091 144.628 59.2411C142.956 27.2731 153.194 2.45497 155.163 4.17387C157.133 5.89277 174.256 23.1264 182.246 51.1142C195.357 97.0426 185.153 114.407 180.937 125.547Z" fill="#666464"/>
<path d="M180.637 122.725C163.155 113.014 150.05 89.2081 147.725 58.9644C145.4 28.7206 153.463 5.60306 155.195 7.28822C156.928 8.97338 172.057 25.7865 179.675 52.4695C192.175 96.2567 183.932 112.336 180.637 122.725Z" fill="white"/>
<path d="M273.89 48.0548C274.148 71.4323 259.1 95.7948 232.434 110.885C205.769 125.975 180.201 126.613 180.843 123.997C181.484 121.381 189.016 97.6703 209.609 78.1931C243.402 46.2319 262.574 48.7057 273.89 48.0548Z" fill="#666464"/>
<path d="M271.6 49.5329C270.66 70.415 255.805 93.0389 230.891 108.028C205.978 123.017 182.784 125.027 183.496 122.652C184.208 120.278 192.221 98.6595 211.854 80.0905C244.072 49.6193 261.316 50.7515 271.6 49.5329Z" fill="white"/>
<path d="M180.812 124.826L186.122 136.821L193.555 152.94L202.051 172.433L209.484 192.3L211.608 198.297L213.732 204.295L216.21 212.542L217.98 218.914L220.458 228.286L223.643 242.53L225.767 254.151L227.537 264.272L228.953 272.143L230.015 282.264L231.077 294.26C231.077 296.884 231.077 302.357 231.077 303.256C231.077 304.156 231.077 311.878 231.077 315.626V319" stroke="#666464" stroke-width="3"/>
<path d="M1.92578 178.441H12.0859L41.7031 257.863L43.8945 264.039L46.75 255.605L75.2383 178.441H79.4219L44.1602 274H38.1172L1.92578 178.441ZM147.576 243.719H105.408L93.9861 274H89.6033L125.927 178.441H132.568L169.092 274H158.931L147.576 243.719ZM146.314 240.199L126.592 187.539L106.736 240.199H146.314ZM183.589 274C183.545 273.513 183.501 273.026 183.457 272.539C183.412 272.008 183.39 271.477 183.39 270.945L240.035 182.293H188.105L188.039 178.441H251.324C251.368 178.928 251.39 179.393 251.39 179.836C251.434 180.234 251.457 180.677 251.457 181.164L194.546 270.148H252.253V274H183.589ZM324.923 243.719H282.755L271.333 274H266.95L303.275 178.441H309.915L346.439 274H336.279L324.923 243.719ZM323.661 240.199L303.939 187.539L284.083 240.199H323.661Z" fill="#6846AC"/>
<path d="M9.55664 299.326H21.0273V300.256H11.8672V308.445H18.375V309.361H11.8672V318.07H21.5605V319H9.55664V299.326ZM32.5702 299.326H35.0585L41.0058 315.295L41.457 316.621L42.0448 314.898L47.8007 299.326H48.7987L41.5253 319H40.0487L32.5702 299.326ZM61.7909 299.326H73.2616V300.256H64.1014V308.445H70.6092V309.361H64.1014V318.07H73.7948V319H61.7909V299.326ZM87.867 301.801L87.9353 303.564V319H86.992V299.326H88.8103L100.595 316.143L100.541 314.721V299.326H101.484V319L99.9802 319.068L87.867 301.801ZM120.711 300.27H114.435V299.326H129.283V300.27H123.035V319H120.711V300.27ZM167.695 312.875H159.164L156.853 319H155.814L163.292 299.326H164.933L172.453 319H169.978L167.695 312.875ZM167.394 312.041L163.457 301.459L159.478 312.041H167.394ZM196.3 319L190.736 310.25H188.822L188.781 309.484H190.667C191.515 309.484 192.258 309.37 192.896 309.143C193.543 308.906 194.081 308.582 194.509 308.172C194.947 307.762 195.27 307.274 195.48 306.709C195.699 306.135 195.808 305.515 195.808 304.85C195.808 304.184 195.699 303.574 195.48 303.018C195.261 302.452 194.938 301.965 194.509 301.555C194.09 301.145 193.561 300.826 192.923 300.598C192.294 300.37 191.561 300.256 190.722 300.256H187.783V319H185.472V299.326H191.269C192.381 299.326 193.37 299.463 194.236 299.736C195.102 300.001 195.831 300.374 196.423 300.857C197.016 301.34 197.467 301.919 197.777 302.594C198.087 303.259 198.242 303.997 198.242 304.809C198.242 305.51 198.119 306.162 197.872 306.764C197.636 307.356 197.285 307.88 196.82 308.336C196.364 308.792 195.803 309.174 195.138 309.484C194.482 309.785 193.734 309.999 192.896 310.127L199.048 319H196.3ZM216.238 300.27H209.962V299.326H224.81V300.27H218.562V319H216.238V300.27ZM257.452 300.27H251.177V299.326H266.025V300.27H259.777V319H257.452V300.27ZM278.976 299.326H290.446V300.256H281.286V308.445H287.794V309.361H281.286V318.07H290.98V319H278.976V299.326ZM313.87 312.875H305.339L303.028 319H301.989L309.468 299.326H311.108L318.628 319H316.153L313.87 312.875ZM313.569 312.041L309.632 301.459L305.653 312.041H313.569ZM333.931 299.326L340.452 313.408L340.958 314.543L341.45 313.312L347.712 299.326H349.981V319H347.657V304.303L347.726 301.596L340.739 317.182H339.823L332.522 301.664L332.591 303.441V319H331.647V299.326H333.931Z" fill="#666464"/>
</svg>



