<svg width="90" height="33" viewBox="0 0 90 33" fill="none" xmlns="http://www.w3.org/2000/svg">
<rect width="90" height="33" rx="2" fill="#666464"/>
<rect x="1" y="1" width="88" height="31" rx="3" fill="white"/>
<path d="M12.2383 9.13672L17.0195 19.6367L17.5586 20.8438L18.0039 19.6953L22.7383 9.13672H25.9727V26H22.6094V15.0078L22.6797 12.3242L17.1836 24.6172H15.918L10.0938 12.3594L10.1641 14.6094V26H8.89844V9.13672H12.2383ZM29.7812 9.13672H40.7852V10.3906H33.1445V16.7305H38.418V17.9727H33.1445V24.7461H41.1367V26H29.7812V9.13672ZM57.4141 9.13672V26H54.0508V18.1016H46.8086V26H43.4453V9.13672H46.8086V16.8594H54.0508V9.13672H57.4141ZM75.3086 26.2812C74.1133 26.2812 73.0195 26.082 72.0273 25.6836C71.043 25.2852 70.1875 24.7266 69.4609 24.0078C68.7344 23.2891 68.1562 22.4336 67.7266 21.4414C67.3047 20.4414 67.0586 19.3398 66.9883 18.1367H64.5742V26H61.2109V9.13672H64.5742V16.8711H66.9883C67.0586 15.668 67.3086 14.5781 67.7383 13.6016C68.168 12.6172 68.7422 11.7773 69.4609 11.082C70.1875 10.3789 71.043 9.83594 72.0273 9.45312C73.0195 9.07031 74.1133 8.87891 75.3086 8.87891C76.5664 8.87891 77.7109 9.08984 78.7422 9.51172C79.7734 9.93359 80.6602 10.5273 81.4023 11.293C82.1445 12.0508 82.7188 12.9648 83.125 14.0352C83.5312 15.0977 83.7344 16.2773 83.7344 17.5742C83.7344 18.8711 83.5312 20.0547 83.125 21.125C82.7266 22.1953 82.1562 23.1133 81.4141 23.8789C80.6797 24.6445 79.793 25.2383 78.7539 25.6602C77.7227 26.0742 76.5742 26.2812 75.3086 26.2812ZM75.4492 25.0156C76.2461 25 76.9453 24.8164 77.5469 24.4648C78.1484 24.1055 78.6484 23.6016 79.0469 22.9531C79.4453 22.3047 79.7383 21.5234 79.9258 20.6094C80.1211 19.6953 80.207 18.6758 80.1836 17.5508C80.1602 16.4102 80.0312 15.3828 79.7969 14.4688C79.5703 13.5469 79.2461 12.7656 78.8242 12.125C78.4023 11.4766 77.8828 10.9805 77.2656 10.6367C76.6484 10.293 75.9414 10.1289 75.1445 10.1445C74.3555 10.1523 73.6602 10.3359 73.0586 10.6953C72.4648 11.0547 71.9688 11.5625 71.5703 12.2188C71.1797 12.8672 70.8867 13.6523 70.6914 14.5742C70.5039 15.4961 70.4219 16.5234 70.4453 17.6562C70.4688 18.7812 70.5938 19.8008 70.8203 20.7148C71.0547 21.6289 71.3828 22.4062 71.8047 23.0469C72.2266 23.6797 72.7422 24.168 73.3516 24.5117C73.9609 24.8555 74.6602 25.0234 75.4492 25.0156Z" fill="#6846AC"/>
</svg>
